# xmcd
#
# Track frame offsets:
# 150
# 20615
# 34707
# 55277
# 71257
# 95470
# 112850
# 151742
# 167634
# 189585
# 208273
# 215275
# 235211
# 257053
# 276091
# 293196
# 319758
# 339766
#
# Disc length: 4690 seconds
#
# Revision: 0
# Processed by: cddbd v1.5.2PL0 Copyright (c) Steve Scherf et al.
# Submitted via: Audion 3.0.2 (http://www.panic.com/audion/)
#
DISCID=f9125012
DTITLE=MYSPACE MUSIC - MYSPACE MUSIC
DYEAR=1900
DGENRE=
TTITLE0=LIQUIDSWORDS 
TTITLE1=YES_I_AM_JACK_BEAZLY
TTITLE2=CAPON
TTITLE3=DEAD
TTITLE4=KANE
TTITLE5=LUCY
TTITLE6=KELSY
TTITLE7=PHAROAHE
TTITLE8=CREE
TTITLE9=NAS
TTITLE10=GHOST
TTITLE11=KOKO
TTITLE12=CAPONE
TTITLE13=HIEROGLYPHICS
TTITLE14=ST.JAMES
TTITLE15=MARVIN
TTITLE16=MOSDEF
TTITLE17=BLACKMOON
EXTD=
EXTT0=
EXTT1=
EXTT2=
EXTT3=
EXTT4=
EXTT5=
EXTT6=
EXTT7=
EXTT8=
EXTT9=
EXTT10=
EXTT11=
EXTT12=
EXTT13=
EXTT14=
EXTT15=
EXTT16=
EXTT17=
PLAYORDER=
